<svg width="76" height="48" viewBox="0 0 76 48" fill="none" xmlns="http://www.w3.org/2000/svg">
<path d="M24 18.85C22.3333 18.85 20.9583 18.3 19.875 17.2C18.7917 16.1 18.25 14.7333 18.25 13.1C18.25 11.4333 18.7917 10.05 19.875 8.95C20.9583 7.85 22.3333 7.3 24 7.3C25.6667 7.3 27.0417 7.85 28.125 8.95C29.2083 10.05 29.75 11.4333 29.75 13.1C29.75 14.7333 29.2083 16.1 28.125 17.2C27.0417 18.3 25.6667 18.85 24 18.85ZM24 17.3C25.2 17.3 26.2083 16.8917 27.025 16.075C27.8417 15.2583 28.25 14.2667 28.25 13.1C28.25 11.9 27.8417 10.8917 27.025 10.075C26.2083 9.25833 25.2 8.85 24 8.85C22.8 8.85 21.7917 9.25833 20.975 10.075C20.1583 10.8917 19.75 11.9 19.75 13.1C19.75 14.2667 20.1583 15.2583 20.975 16.075C21.7917 16.8917 22.8 17.3 24 17.3ZM10 39.9V29.9C10 29 10.25 28.2 10.75 27.5C11.25 26.8 11.9167 26.2667 12.75 25.9C14.4167 25.1333 16.225 24.5 18.175 24C20.125 23.5 22.0667 23.25 24 23.25C25.9333 23.25 27.875 23.5 29.825 24C31.775 24.5 33.5833 25.1333 35.25 25.9C36.0833 26.2667 36.75 26.8 37.25 27.5C37.75 28.2 38 29 38 29.9V37.15C38 37.9167 37.7333 38.5667 37.2 39.1C36.6667 39.6333 36.0167 39.9 35.25 39.9H20.5C19.4 39.9 18.475 39.525 17.725 38.775C16.975 38.025 16.6 37.1167 16.6 36.05C16.6 34.95 16.975 34.025 17.725 33.275C18.475 32.525 19.4 32.15 20.5 32.15H26.8L30 25.6C29 25.3 27.95 25.0833 26.85 24.95C25.75 24.8167 24.8 24.75 24 24.75C22.0667 24.75 20.225 24.9667 18.475 25.4C16.725 25.8333 15.0333 26.45 13.4 27.25C12.8667 27.5167 12.425 27.8917 12.075 28.375C11.725 28.8583 11.55 29.3667 11.55 29.9V39.9H10ZM20.5 38.4H23.75L26.05 33.7H20.5C19.8667 33.7 19.3167 33.925 18.85 34.375C18.3833 34.825 18.15 35.3833 18.15 36.05C18.15 36.6833 18.3833 37.2333 18.85 37.7C19.3167 38.1667 19.8667 38.4 20.5 38.4V38.4ZM25.4 38.4H35.25C35.5833 38.4 35.8667 38.2833 36.1 38.05C36.3333 37.8167 36.45 37.5167 36.45 37.15V29.9C36.45 29.3333 36.2667 28.8167 35.9 28.35C35.5333 27.8833 35.0833 27.5167 34.55 27.25C34.1167 27.0167 33.6333 26.8 33.1 26.6L31.5 26L25.4 38.4Z" fill="black"/>
<path d="M24 18.85C22.3333 18.85 20.9583 18.3 19.875 17.2C18.7917 16.1 18.25 14.7333 18.25 13.1C18.25 11.4333 18.7917 10.05 19.875 8.95C20.9583 7.85 22.3333 7.3 24 7.3C25.6667 7.3 27.0417 7.85 28.125 8.95C29.2083 10.05 29.75 11.4333 29.75 13.1C29.75 14.7333 29.2083 16.1 28.125 17.2C27.0417 18.3 25.6667 18.85 24 18.85ZM24 17.3C25.2 17.3 26.2083 16.8917 27.025 16.075C27.8417 15.2583 28.25 14.2667 28.25 13.1C28.25 11.9 27.8417 10.8917 27.025 10.075C26.2083 9.25833 25.2 8.85 24 8.85C22.8 8.85 21.7917 9.25833 20.975 10.075C20.1583 10.8917 19.75 11.9 19.75 13.1C19.75 14.2667 20.1583 15.2583 20.975 16.075C21.7917 16.8917 22.8 17.3 24 17.3ZM10 39.9V29.9C10 29 10.25 28.2 10.75 27.5C11.25 26.8 11.9167 26.2667 12.75 25.9C14.4167 25.1333 16.225 24.5 18.175 24C20.125 23.5 22.0667 23.25 24 23.25C25.9333 23.25 27.875 23.5 29.825 24C31.775 24.5 33.5833 25.1333 35.25 25.9C36.0833 26.2667 36.75 26.8 37.25 27.5C37.75 28.2 38 29 38 29.9V37.15C38 37.9167 37.7333 38.5667 37.2 39.1C36.6667 39.6333 36.0167 39.9 35.25 39.9H20.5C19.4 39.9 18.475 39.525 17.725 38.775C16.975 38.025 16.6 37.1167 16.6 36.05C16.6 34.95 16.975 34.025 17.725 33.275C18.475 32.525 19.4 32.15 20.5 32.15H26.8L30 25.6C29 25.3 27.95 25.0833 26.85 24.95C25.75 24.8167 24.8 24.75 24 24.75C22.0667 24.75 20.225 24.9667 18.475 25.4C16.725 25.8333 15.0333 26.45 13.4 27.25C12.8667 27.5167 12.425 27.8917 12.075 28.375C11.725 28.8583 11.55 29.3667 11.55 29.9V39.9H10ZM20.5 38.4H23.75L26.05 33.7H20.5C19.8667 33.7 19.3167 33.925 18.85 34.375C18.3833 34.825 18.15 35.3833 18.15 36.05C18.15 36.6833 18.3833 37.2333 18.85 37.7C19.3167 38.1667 19.8667 38.4 20.5 38.4V38.4ZM25.4 38.4H35.25C35.5833 38.4 35.8667 38.2833 36.1 38.05C36.3333 37.8167 36.45 37.5167 36.45 37.15V29.9C36.45 29.3333 36.2667 28.8167 35.9 28.35C35.5333 27.8833 35.0833 27.5167 34.55 27.25C34.1167 27.0167 33.6333 26.8 33.1 26.6L31.5 26L25.4 38.4Z" fill="black"/>
<path d="M62 18.55C60.3333 18.55 58.9583 18 57.875 16.9C56.7917 15.8 56.25 14.4333 56.25 12.8C56.25 11.1333 56.7917 9.75 57.875 8.65C58.9583 7.55 60.3333 7 62 7C63.6667 7 65.0417 7.55 66.125 8.65C67.2083 9.75 67.75 11.1333 67.75 12.8C67.75 14.4333 67.2083 15.8 66.125 16.9C65.0417 18 63.6667 18.55 62 18.55ZM62 17C63.2 17 64.2083 16.5917 65.025 15.775C65.8417 14.9583 66.25 13.9667 66.25 12.8C66.25 11.6 65.8417 10.5917 65.025 9.775C64.2083 8.95833 63.2 8.55 62 8.55C60.8 8.55 59.7917 8.95833 58.975 9.775C58.1583 10.5917 57.75 11.6 57.75 12.8C57.75 13.9667 58.1583 14.9583 58.975 15.775C59.7917 16.5917 60.8 17 62 17ZM48 39.6V29.6C48 28.7 48.25 27.9 48.75 27.2C49.25 26.5 49.9167 25.9667 50.75 25.6C52.4167 24.8333 54.225 24.2 56.175 23.7C58.125 23.2 60.0667 22.95 62 22.95C63.9333 22.95 65.875 23.2 67.825 23.7C69.775 24.2 71.5833 24.8333 73.25 25.6C74.0833 25.9667 74.75 26.5 75.25 27.2C75.75 27.9 76 28.7 76 29.6V36.85C76 37.6167 75.7333 38.2667 75.2 38.8C74.6667 39.3333 74.0167 39.6 73.25 39.6H58.5C57.4 39.6 56.475 39.225 55.725 38.475C54.975 37.725 54.6 36.8167 54.6 35.75C54.6 34.65 54.975 33.725 55.725 32.975C56.475 32.225 57.4 31.85 58.5 31.85H64.8L68 25.3C67 25 65.95 24.7833 64.85 24.65C63.75 24.5167 62.8 24.45 62 24.45C60.0667 24.45 58.225 24.6667 56.475 25.1C54.725 25.5333 53.0333 26.15 51.4 26.95C50.8667 27.2167 50.425 27.5917 50.075 28.075C49.725 28.5583 49.55 29.0667 49.55 29.6V39.6H48ZM58.5 38.1H61.75L64.05 33.4H58.5C57.8667 33.4 57.3167 33.625 56.85 34.075C56.3833 34.525 56.15 35.0833 56.15 35.75C56.15 36.3833 56.3833 36.9333 56.85 37.4C57.3167 37.8667 57.8667 38.1 58.5 38.1V38.1ZM63.4 38.1H73.25C73.5833 38.1 73.8667 37.9833 74.1 37.75C74.3333 37.5167 74.45 37.2167 74.45 36.85V29.6C74.45 29.0333 74.2667 28.5167 73.9 28.05C73.5333 27.5833 73.0833 27.2167 72.55 26.95C72.1167 26.7167 71.6333 26.5 71.1 26.3L69.5 25.7L63.4 38.1Z" fill="black"/>
<path d="M43 13.85C41.3333 13.85 39.9583 13.3 38.875 12.2C37.7917 11.1 37.25 9.73332 37.25 8.09999C37.25 6.43332 37.7917 5.04999 38.875 3.94999C39.9583 2.84999 41.3333 2.29999 43 2.29999C44.6667 2.29999 46.0417 2.84999 47.125 3.94999C48.2083 5.04999 48.75 6.43332 48.75 8.09999C48.75 9.73332 48.2083 11.1 47.125 12.2C46.0417 13.3 44.6667 13.85 43 13.85ZM43 12.3C44.2 12.3 45.2083 11.8917 46.025 11.075C46.8417 10.2583 47.25 9.26665 47.25 8.09999C47.25 6.89999 46.8417 5.89165 46.025 5.07499C45.2083 4.25832 44.2 3.84999 43 3.84999C41.8 3.84999 40.7917 4.25832 39.975 5.07499C39.1583 5.89165 38.75 6.89999 38.75 8.09999C38.75 9.26665 39.1583 10.2583 39.975 11.075C40.7917 11.8917 41.8 12.3 43 12.3ZM28.5 31L30 25.5C30 24.6 29.5 24 30 23C29.8125 23.375 30 22.5 31.75 20.9C33.4167 20.1333 35.225 19.5 37.175 19C39.125 18.5 41.0667 18.25 43 18.25C44.9333 18.25 46.875 18.5 48.825 19C50.775 19.5 52.5833 20.1333 54.25 20.9C55.0833 21.2667 55.75 21.8 56.25 22.5C56.75 23.2 57 24 57 24.9L51 26.5C51 26.8654 49.684 27.5077 49.2774 28.7C48.8311 30.0091 49.2791 31.8709 49 32.15C48.4667 32.6833 49.7667 35 49 35L39.5 34.9C38.4 34.9 37.475 34.525 36.725 33.775C36.725 33.0583 36.725 32.2739 36.725 31.2072C36.725 30.1072 36.25 28.75 37 28C37.75 27.25 38.4 27.15 39.5 27.15H45.8L49 20.6C48 20.3 46.95 20.0833 45.85 19.95C44.75 19.8167 43.8 19.75 43 19.75C41.0667 19.75 39.225 19.9667 37.475 20.4C35.725 20.8333 34.0333 21.45 32.4 22.25C31.8667 22.5167 31.425 22.8917 31.075 23.375C30.725 23.8583 30.5 25.4667 30.5 26L29.5 30L28.5 31ZM39.5 33.4H42.75L45.05 28.7H39.5C38.8667 28.7 38.3167 28.925 37.85 29.375C37.3833 29.825 37.15 30.3833 37.15 31.05C37.15 31.6833 37.3833 32.2333 37.85 32.7C38.3167 33.1667 38.8667 33.4 39.5 33.4ZM44.4 33.4L48.366 33.5065V32.15C48.6993 32.15 48.5917 28.4627 48.825 28.2294C49.0583 27.996 49.5 27.3667 49.5 27L55.45 24.9C55.45 24.3333 55.2667 23.8167 54.9 23.35C54.5333 22.8833 54.0833 22.5167 53.55 22.25C53.1167 22.0167 52.6333 21.8 52.1 21.6L50.5 21L44.4 33.4Z" fill="black"/>
</svg>
