<svg width="75" height="60" viewBox="0 0 75 60" fill="none" xmlns="http://www.w3.org/2000/svg">
<path d="M9.55 47.9V51.25C9.55 51.45 9.475 51.625 9.325 51.775C9.175 51.925 8.98333 52 8.75 52C8.55 52 8.375 51.925 8.225 51.775C8.075 51.625 8 51.45 8 51.25V36.45L12 24.75C12.0667 24.5167 12.2167 24.3333 12.45 24.2C12.6833 24.0667 12.9167 24 13.15 24H35C35.2333 24 35.4417 24.0667 35.625 24.2C35.8083 24.3333 35.9333 24.5167 36 24.75L40 36.45V51.25C40 51.45 39.925 51.625 39.775 51.775C39.625 51.925 39.45 52 39.25 52H39.2C38.9667 52 38.7833 51.925 38.65 51.775C38.5167 51.625 38.45 51.45 38.45 51.25V47.9H9.55ZM10.15 34.9H37.85L34.6 25.55H13.4L10.15 34.9ZM9.55 36.45V46.4V36.45ZM14.5 43.55C15.1 43.55 15.6 43.3417 16 42.925C16.4 42.5083 16.6 42 16.6 41.4C16.6 40.8 16.3917 40.3 15.975 39.9C15.5583 39.5 15.0667 39.3 14.5 39.3C13.9 39.3 13.4 39.5 13 39.9C12.6 40.3 12.4 40.8 12.4 41.4C12.4 42.0333 12.6083 42.55 13.025 42.95C13.4417 43.35 13.9333 43.55 14.5 43.55V43.55ZM33.5 43.55C34.1 43.55 34.6083 43.3417 35.025 42.925C35.4417 42.5083 35.65 42 35.65 41.4C35.65 40.8 35.4417 40.3 35.025 39.9C34.6083 39.5 34.1 39.3 33.5 39.3C32.9333 39.3 32.4417 39.5 32.025 39.9C31.6083 40.3 31.4 40.8 31.4 41.4C31.4 42.0333 31.6167 42.55 32.05 42.95C32.4833 43.35 32.9667 43.55 33.5 43.55V43.55ZM9.55 46.4H38.45V36.45H9.55V46.4Z" fill="black"/>
<path d="M38 36L35 24.5C35 24.7 24.65 24.85 24.5 25C24.35 25.15 24.7333 24.5 24.5 24.5C24.3 24.5 24.15 25.15 24 25C24 25.2 23.85 24.85 24 25L23.6499 25.0113L27.6499 13.3113C27.7166 13.0779 27.8666 12.8946 28.0999 12.7613C28.3332 12.6279 28.5666 12.5613 28.7999 12.5613H50.6499C50.8832 12.5613 51.0916 12.6279 51.2749 12.7613C51.4582 12.8946 51.5832 13.0779 51.6499 13.3113L55.6499 25.0113L55 24.5C55 24.7 54.65 23.85 54.5 24C54.0751 23.6637 54.7 24.5 54.5 24.5H54.0999C53.8666 24.5 48.1333 25.15 48 25C48 25 45 34.7 45 34.5L44.2272 36.5H38.5L38 36ZM25.7999 23.4613H53.4999L50.2499 14.1113H29.0499L25.7999 23.4613ZM38 35H44.2272L47.8544 25.0113H35.2393L38 35Z" fill="black"/>
<path d="M46.1477 30.4691C46.1477 31.5737 46 32 45.5 32.5C44.3954 32.5 43.5 31.6046 43.5 30.5C43.5 29.3954 45.3954 29 46.5 29C47.6046 29 46.1477 29.3645 46.1477 30.4691Z" fill="black"/>
<path d="M44.55 47.9V51.25C44.55 51.45 44.475 51.625 44.325 51.775C44.175 51.925 43.9833 52 43.75 52C43.55 52 43.375 51.925 43.225 51.775C43.075 51.625 43 51.45 43 51.25V36.45L47 24.75C47.0667 24.5167 47.2167 24.3333 47.45 24.2C47.6833 24.0667 47.9167 24 48.15 24H70C70.2333 24 70.4417 24.0667 70.625 24.2C70.8083 24.3333 70.9333 24.5167 71 24.75L75 36.45V51.25C75 51.45 74.925 51.625 74.775 51.775C74.625 51.925 74.45 52 74.25 52H74.2C73.9667 52 73.7833 51.925 73.65 51.775C73.5167 51.625 73.45 51.45 73.45 51.25V47.9H44.55ZM45.15 34.9H72.85L69.6 25.55H48.4L45.15 34.9ZM49.5 43.55C50.1 43.55 50.6 43.3417 51 42.925C51.4 42.5083 51.6 42 51.6 41.4C51.6 40.8 51.3917 40.3 50.975 39.9C50.5583 39.5 50.0667 39.3 49.5 39.3C48.9 39.3 48.4 39.5 48 39.9C47.6 40.3 47.4 40.8 47.4 41.4C47.4 42.0333 47.6083 42.55 48.025 42.95C48.4417 43.35 48.9333 43.55 49.5 43.55ZM68.5 43.55C69.1 43.55 69.6083 43.3417 70.025 42.925C70.4417 42.5083 70.65 42 70.65 41.4C70.65 40.8 70.4417 40.3 70.025 39.9C69.6083 39.5 69.1 39.3 68.5 39.3C67.9333 39.3 67.4417 39.5 67.025 39.9C66.6083 40.3 66.4 40.8 66.4 41.4C66.4 42.0333 66.6167 42.55 67.05 42.95C67.4833 43.35 67.9667 43.55 68.5 43.55ZM44.55 46.4H73.45V36.45H44.55V46.4Z" fill="black"/>
</svg>
