<svg width="48" height="48" viewBox="0 0 48 48" fill="none" xmlns="http://www.w3.org/2000/svg">
<path d="M24.5 42C22.0667 41.9 18.7833 41.375 16.65 40.425C14.5167 39.475 12.6667 38.1917 11.1 36.575C9.53333 34.9583 8.29167 33.075 7.375 30.925C6.45833 28.775 6 26.4667 6 24C6 21.5 6.475 19.1583 7.425 16.975C8.375 14.7917 9.65833 12.8917 11.275 11.275C12.8917 9.65833 14.7917 8.375 16.975 7.425C19.1583 6.475 21.5 6 24 6C28.7 6 32.75 7.55 36.15 10.65C39.55 13.75 41.4833 17.6167 41.95 22.25H40.4C40.0667 19.1833 39 16.425 37.2 13.975C35.4 11.525 33.05 9.73333 30.15 8.6V9.55C30.15 10.6833 29.7583 11.6583 28.975 12.475C28.1917 13.2917 27.2333 13.7 26.1 13.7H21.95V17.85C21.95 18.3833 21.7417 18.85 21.325 19.25C20.9083 19.65 20.4167 19.85 19.85 19.85H15.75V24H20.15V30.1H17.85L7.95 20.25C7.85 20.85 7.75833 21.4667 7.675 22.1C7.59167 22.7333 7.55 23.3667 7.55 24C7.55 28.4333 9.075 32.25 12.125 35.45C15.175 38.65 18.9667 40.3167 23.5 40.45L24.5 42Z" fill="black"/>
<path d="M33.5 39.175C33.75 39.175 33.9437 39.1063 34.0812 38.9688C34.2187 38.8312 34.2875 38.6375 34.2875 38.3875C34.2875 38.1375 34.2187 37.9438 34.0812 37.8063C33.9437 37.6688 33.75 37.6 33.5 37.6C33.25 37.6 33.0563 37.6688 32.9188 37.8063C32.7813 37.9438 32.7125 38.1375 32.7125 38.3875C32.7125 38.6375 32.7813 38.8312 32.9188 38.9688C33.0563 39.1063 33.25 39.175 33.5 39.175ZM32.975 34.3375H34.1375V25.1125H32.975V34.3375ZM33.5 46C31.625 46 29.875 45.6438 28.25 44.9313C26.625 44.2188 25.2 43.25 23.975 42.025C22.75 40.8 21.7813 39.375 21.0688 37.75C20.3563 36.125 20 34.375 20 32.5C20 30.625 20.3563 28.8688 21.0688 27.2313C21.7813 25.5938 22.75 24.1687 23.975 22.9562C25.2 21.7437 26.625 20.7813 28.25 20.0688C29.875 19.3563 31.625 19 33.5 19C35.375 19 37.1312 19.3563 38.7687 20.0688C40.4062 20.7813 41.8312 21.7437 43.0437 22.9562C44.2562 24.1687 45.2188 25.5938 45.9313 27.2313C46.6438 28.8688 47 30.625 47 32.5C47 34.375 46.6438 36.125 45.9313 37.75C45.2188 39.375 44.2562 40.8 43.0437 42.025C41.8312 43.25 40.4062 44.2188 38.7687 44.9313C37.1312 45.6438 35.375 46 33.5 46ZM33.5375 44.8375C36.9375 44.8375 39.8375 43.6375 42.2375 41.2375C44.6375 38.8375 45.8375 35.9125 45.8375 32.4625C45.8375 29.0625 44.6437 26.1625 42.2562 23.7625C39.8687 21.3625 36.95 20.1625 33.5 20.1625C30.075 20.1625 27.1625 21.3562 24.7625 23.7437C22.3625 26.1312 21.1625 29.05 21.1625 32.5C21.1625 35.925 22.3625 38.8375 24.7625 41.2375C27.1625 43.6375 30.0875 44.8375 33.5375 44.8375V44.8375Z" fill="black"/>
</svg>
